<svg width="65" height="30" viewBox="0 0 65 30" fill="none" xmlns="http://www.w3.org/2000/svg">
<path d="M0 9C0 6.23858 2.23858 4 5 4H41V27H5C2.23858 27 0 24.7614 0 22V9Z" fill="#777171"/>
<path d="M50 0C41.7157 0 35 6.71572 35 15C35 23.2843 41.7157 30 50 30C58.2843 30 65 23.2843 65 15C65 6.71572 58.2843 0 50 0ZM42.4396 6.33728L45.1093 7.1759C45.4627 7.29198 45.6981 7.62017 45.7391 7.95592L45.8893 9.42623L57.9779 10.7757C58.497 10.8763 58.8617 11.3449 58.7891 11.8267L58.0383 16.0564C57.9428 16.4988 57.5763 16.8021 57.1686 16.8071H46.4295L46.2189 18.0065H56.4179C56.9512 18.0253 57.3418 18.4314 57.348 18.9056C57.3259 19.4465 56.8899 19.8006 56.4179 19.8064H45.1385C44.5696 19.7594 44.152 19.3085 44.2395 18.7572L44.7192 16.1168L43.9685 8.73595L41.8994 8.0768C41.6594 7.9968 41.4792 7.84633 41.3593 7.62633C41.1322 7.15053 41.3443 6.62372 41.7493 6.39585C41.9804 6.2757 42.2062 6.26073 42.4396 6.33728ZM46.5045 20.3247C47.2812 20.3247 47.9108 20.9543 47.9108 21.7309C47.9108 22.5076 47.2812 23.1372 46.5045 23.1372C45.7279 23.1372 45.0983 22.5076 45.0983 21.7309C45.0983 20.9543 45.7279 20.3247 46.5045 20.3247ZM54.7589 20.3247C55.5355 20.3247 56.1652 20.9543 56.1652 21.7309C56.1652 22.5076 55.5355 23.1372 54.7589 23.1372C53.9823 23.1372 53.3527 22.5076 53.3527 21.7309C53.3527 20.9543 53.9823 20.3247 54.7589 20.3247Z" fill="#F2F2F2"/>
<path d="M13.8873 19.0114L14.0861 17.7685L19.6394 10.8182H20.6188L20.3155 12.6477H19.6941L15.7168 17.6293V17.7088H21.7424L21.5286 19.0114H13.8873ZM18.3766 21L18.7694 18.6236L18.8787 18.0717L20.0769 10.8182H21.5336L19.8432 21H18.3766Z" fill="#CCFF00"/>
</svg>
